<?xml version="1.0" standalone="no"?>
<!DOCTYPE svg PUBLIC "-//W3C//DTD SVG 20010904//EN"
 "http://www.w3.org/TR/2001/REC-SVG-20010904/DTD/svg10.dtd">
<svg version="1.0" xmlns="http://www.w3.org/2000/svg"
 width="960.000000pt" height="1280.000000pt" viewBox="0 0 960.000000 1280.000000"
 preserveAspectRatio="xMidYMid meet">

<g transform="translate(0.000000,1280.000000) scale(0.100000,-0.100000)"
fill="#000000" stroke="none">
<path d="M6545 10870 c-16 -7 -13 -9 18 -9 20 -1 37 4 37 9 0 12 -27 12 -55 0z"/>
<path d="M5851 9845 c-57 -25 -131 -85 -172 -142 -22 -29 -70 -113 -106 -186
-36 -72 -81 -151 -100 -175 -55 -68 -74 -73 -238 -73 -157 1 -182 6 -214 47
-18 22 -21 40 -21 109 0 176 -76 304 -220 374 -49 23 -67 26 -165 26 -105 0
-114 -2 -177 -33 -76 -37 -169 -130 -198 -198 -43 -100 -46 -173 -13 -313 5
-21 4 -22 -16 -12 -11 6 -57 54 -101 105 -87 102 -124 126 -194 126 -39 0 -52
-6 -86 -36 -71 -64 -72 -119 -6 -239 41 -72 45 -116 16 -145 -28 -28 -76 -25
-152 8 -78 35 -196 67 -306 83 -130 18 -435 7 -547 -20 -182 -44 -386 -128
-513 -210 -34 -23 -66 -41 -70 -41 -4 1 -21 20 -39 44 -18 24 -46 54 -62 65
l-30 22 21 -62 c17 -50 26 -64 49 -73 64 -24 13 -45 -109 -47 -48 -1 -118 -4
-157 -8 l-70 -6 115 -13 c63 -7 123 -16 133 -18 14 -5 2 -22 -63 -90 -181
-192 -257 -398 -248 -672 9 -252 77 -410 289 -669 71 -86 79 -102 79 -154 0
-54 -30 -82 -160 -154 -91 -49 -98 -55 -156 -141 -34 -49 -75 -97 -90 -106
-53 -32 -114 -24 -253 36 -69 29 -143 57 -164 60 -73 13 -161 -33 -197 -104
-62 -121 -13 -250 113 -293 26 -10 68 -24 93 -33 59 -21 80 -55 89 -147 7 -78
28 -127 77 -182 43 -50 93 -82 245 -160 73 -36 143 -78 157 -92 34 -34 41 -74
20 -118 -20 -43 -47 -63 -161 -118 -85 -41 -91 -42 -188 -42 -117 0 -156 -16
-192 -81 -60 -105 4 -238 121 -251 55 -7 93 11 177 82 66 56 142 92 216 102
l42 6 -20 -54 c-33 -86 -24 -166 30 -269 55 -106 62 -131 49 -177 -12 -46 -68
-106 -203 -217 -135 -112 -190 -174 -227 -253 -40 -84 -43 -181 -10 -255 27
-62 99 -138 159 -168 42 -22 61 -25 148 -25 100 0 100 0 220 55 l120 55 295
-3 c335 -4 412 4 619 63 137 38 148 40 204 24 118 -32 187 -205 187 -468 0
-81 4 -114 18 -141 53 -105 204 -107 265 -3 13 23 28 106 53 290 42 303 42
307 72 311 31 5 45 -33 87 -233 20 -93 43 -192 52 -219 19 -60 73 -121 118
-136 29 -10 36 -18 45 -53 85 -345 225 -512 462 -551 48 -9 163 16 227 49 68
34 190 151 247 236 88 133 177 358 255 643 34 123 67 208 80 201 4 -3 11 -27
15 -53 17 -115 48 -161 129 -191 66 -25 241 -45 319 -37 127 13 219 81 245
181 6 22 20 55 31 73 16 26 26 32 53 32 42 0 49 -8 127 -140 34 -58 74 -118
89 -134 69 -76 179 -73 251 6 39 42 46 82 26 148 -9 29 -14 56 -11 58 2 3 57
13 122 23 230 35 344 90 489 233 157 155 303 402 425 715 44 114 52 147 57
221 5 99 -4 126 -65 181 -27 25 -68 45 -138 68 -153 51 -165 59 -165 118 0 35
45 92 86 109 69 29 223 18 534 -36 171 -30 240 -18 312 54 48 47 68 101 68
181 0 120 -49 190 -153 220 -29 8 -138 24 -244 34 -192 20 -244 33 -257 66
-14 36 -3 59 58 124 69 74 90 107 112 181 17 59 51 86 179 146 165 77 211 175
139 301 -28 49 -63 76 -120 93 -61 18 -150 0 -315 -66 -152 -59 -197 -66 -230
-33 l-21 21 55 49 c66 58 83 97 97 221 6 51 13 112 16 134 7 55 48 110 214
287 160 169 181 199 216 297 21 60 25 86 20 131 -19 186 -160 326 -340 337
-59 3 -84 -1 -146 -23 -41 -15 -95 -42 -120 -59 -25 -18 -64 -42 -88 -54 -38
-20 -47 -21 -95 -11 -139 30 -152 89 -47 215 116 138 205 263 233 324 87 191
25 379 -154 469 -84 42 -148 48 -249 22 -97 -24 -203 -79 -325 -167 -50 -36
-107 -74 -127 -84 -52 -28 -114 -25 -184 7 -40 18 -77 27 -115 27 -76 1 -121
-31 -196 -136 -33 -46 -74 -93 -93 -105 -44 -30 -112 -31 -141 -2 -29 29 -21
61 56 244 103 246 108 262 109 350 1 70 -3 87 -29 138 -35 70 -107 139 -163
155 -54 16 -160 14 -201 -3z m-1251 -254 c0 -5 -17 -18 -37 -28 -48 -23 -77
-80 -80 -153 -2 -69 -17 -72 -21 -5 -5 72 15 130 55 165 32 28 83 41 83 21z
m1189 -98 c-22 -43 -57 -108 -77 -145 -20 -38 -40 -68 -45 -68 -13 0 -4 21 81
174 42 76 78 134 80 128 2 -6 -16 -46 -39 -89z m1476 -292 c-6 -4 -32 -24 -60
-42 -56 -39 -205 -146 -361 -262 -59 -43 -108 -76 -110 -74 -2 2 9 22 25 44
51 71 328 265 456 321 56 24 63 26 50 13z m-809 -302 c-6 -57 -3 -90 15 -164
20 -81 21 -97 9 -125 -33 -79 -147 -66 -214 24 -47 62 -8 162 104 271 38 36
74 65 80 65 10 0 11 -18 6 -71z m-2114 44 c56 -50 -27 -173 -149 -219 -24 -9
-46 -14 -50 -11 -8 8 71 172 103 215 28 36 66 42 96 15z m-950 -14 c19 -10 88
-146 88 -174 0 -23 -30 -45 -61 -45 -28 0 -33 6 -63 73 -49 107 -50 113 -27
136 24 24 34 25 63 10z m-516 -90 c10 -17 -16 -29 -66 -29 -151 0 -417 -141
-559 -296 -62 -68 -130 -180 -163 -270 -26 -69 -28 -204 -5 -272 14 -39 13
-52 -4 -52 -12 0 -28 58 -39 141 -9 63 -8 90 6 150 63 286 350 554 669 624 75
17 152 18 161 4z m1122 -82 c56 -27 101 -55 99 -61 -8 -24 -154 -34 -220 -15
-50 13 -77 42 -77 78 0 37 33 63 69 55 14 -3 72 -29 129 -57z m-1040 -209 c7
-7 12 -25 12 -40 0 -33 -33 -52 -62 -37 -23 13 -34 55 -18 74 15 18 51 20 68
3z m2408 -3 c211 -22 285 -33 399 -61 348 -88 512 -179 602 -336 29 -49 78
-205 94 -298 16 -88 18 -476 5 -740 l-9 -175 43 -205 c67 -322 59 -459 -34
-604 -99 -154 -271 -256 -462 -272 -47 -5 -105 -1 -177 11 -99 16 -109 16
-131 1 -37 -24 -73 -93 -102 -192 -33 -114 -62 -161 -108 -169 -50 -10 -96 17
-96 55 0 22 7 32 27 42 21 10 34 31 55 88 15 41 28 82 28 90 1 34 76 155 110
178 34 24 38 24 198 18 111 -5 182 -3 225 5 169 33 328 165 386 322 36 99 37
178 2 397 -30 192 -31 201 -31 560 0 576 -33 741 -185 925 -31 38 -160 135
-179 135 -6 0 -23 6 -38 14 -51 27 -140 56 -241 81 -464 110 -785 112 -1382
10 -552 -95 -772 -222 -869 -501 -55 -157 -73 -311 -81 -695 -5 -261 -9 -302
-55 -544 -31 -167 -35 -258 -16 -334 39 -151 157 -282 316 -351 48 -21 70 -24
175 -24 66 0 154 2 196 4 130 7 170 -33 241 -244 38 -114 46 -131 71 -140 35
-14 36 -48 1 -75 -37 -29 -76 -27 -111 7 -22 20 -39 57 -67 142 -20 63 -48
131 -61 152 -32 47 -79 64 -141 49 -186 -47 -392 -5 -541 111 -101 77 -175
202 -192 320 -14 102 0 208 63 483 23 97 26 133 27 310 2 333 16 567 44 719
51 277 126 383 341 487 223 108 452 168 849 223 99 14 191 27 205 29 67 11
471 6 606 -8z m2444 -249 c0 -2 -7 -7 -16 -10 -8 -3 -12 -2 -9 4 6 10 25 14
25 6z m-100 -66 c0 -20 -242 -230 -264 -230 -6 1 9 19 34 42 69 63 224 198
227 198 2 0 3 -4 3 -10z m-4798 -226 c3 -3 -5 -27 -18 -54 -37 -77 -64 -166
-64 -211 l0 -42 -41 7 c-73 12 -190 81 -224 133 -16 24 -16 26 16 59 39 41
120 82 192 100 55 13 130 18 139 8z m-109 -609 c46 -21 58 -47 45 -95 -11 -41
-41 -70 -74 -70 -64 0 -216 79 -229 120 -15 46 42 71 150 66 41 -1 86 -10 108
-21z m4341 -51 c23 -22 20 -60 -6 -79 -13 -8 -52 -24 -87 -35 -79 -25 -114
-14 -119 37 -4 38 23 59 96 79 64 17 98 17 116 -2z m-2871 -211 c220 -116 384
-426 284 -538 -31 -34 -144 -65 -258 -72 -152 -9 -249 22 -343 108 -100 91
-141 213 -117 341 17 84 35 112 69 103 21 -5 31 0 61 35 71 81 177 89 304 23z
m1468 23 c19 -9 45 -32 59 -51 22 -31 29 -35 57 -30 43 8 59 -18 74 -115 21
-137 -22 -248 -130 -339 -93 -77 -151 -95 -301 -95 -109 0 -135 3 -208 27
-106 36 -116 50 -110 153 4 64 12 89 47 159 64 126 184 239 311 292 63 27 144
27 201 -1z m1726 -116 c36 -69 36 -92 1 -111 -31 -17 -54 -1 -87 60 -45 86
-38 125 23 119 24 -3 34 -13 63 -68z m-3681 -101 c-9 -55 9 -149 43 -224 51
-111 170 -203 311 -240 52 -14 88 -16 179 -11 63 3 112 3 108 0 -13 -13 -135
-33 -202 -34 -152 0 -281 62 -376 183 -60 75 -96 227 -77 320 12 58 23 63 14
6z m2211 -97 c-3 -58 -11 -87 -42 -149 -51 -102 -115 -164 -225 -217 l-85 -41
-120 0 c-91 1 -129 5 -159 18 -49 22 -44 28 14 17 72 -14 197 -11 264 6 74 19
182 81 224 128 17 19 47 69 68 111 33 66 38 88 42 163 4 69 7 82 14 62 6 -14
8 -58 5 -98z m-3700 91 c55 -26 93 -86 93 -145 0 -100 -60 -168 -155 -176 -72
-6 -134 28 -164 91 -25 52 -26 85 -6 135 41 97 141 138 232 95z m4744 -37
c176 -134 235 -364 150 -581 -29 -74 -110 -195 -132 -195 -4 0 -5 15 -1 33 4
17 7 130 7 249 l0 217 40 -64 c23 -35 44 -67 47 -70 12 -13 -114 300 -128 316
-8 8 -14 24 -14 35 -1 10 -7 30 -15 44 -16 28 -19 50 -6 50 4 0 28 -15 52 -34z
m-4357 -167 c32 -36 32 -55 2 -239 -43 -258 -3 -441 141 -656 24 -35 43 -67
43 -71 0 -3 8 -12 17 -19 34 -24 2 -28 -41 -6 -88 47 -165 144 -196 247 -6 22
-16 127 -20 233 -9 190 -9 193 -50 310 -57 161 -59 176 -24 214 25 25 34 29
64 24 22 -3 46 -17 64 -37z m2046 -178 c0 -4 -16 -31 -35 -61 -40 -62 -55
-107 -55 -166 0 -44 -19 -70 -45 -60 -24 9 -20 129 6 186 27 60 85 119 110
113 10 -3 19 -8 19 -12z m369 -6 c65 -56 114 -222 78 -269 -22 -29 -47 -14
-47 28 0 67 -22 136 -56 182 -33 43 -41 64 -27 77 11 11 20 8 52 -18z m-409
-889 c0 -107 -1 -116 -22 -130 -30 -21 -61 -20 -82 3 -14 15 -16 36 -14 117
l3 98 45 12 c74 20 70 26 70 -100z m469 93 c34 -12 34 -13 33 -134 -1 -59 -5
-73 -23 -87 -26 -22 -48 -23 -77 -2 -20 14 -22 23 -22 125 l0 109 29 0 c15 0
42 -5 60 -11z m1743 -106 c57 -56 63 -90 22 -122 -39 -31 -57 -26 -118 30
l-56 51 48 44 c26 24 49 43 52 44 2 0 26 -21 52 -47z m-97 -364 c11 -16 1 -19
-13 -3 -7 8 -8 14 -3 14 5 0 13 -5 16 -11z m-55 -13 c0 -3 -4 -8 -10 -11 -5
-3 -10 -1 -10 4 0 6 5 11 10 11 6 0 10 -2 10 -4z m-3110 -241 c43 -51 158
-142 227 -181 29 -16 53 -35 53 -42 0 -27 -40 -70 -80 -86 -104 -42 -189 3
-255 134 -44 87 -65 105 -124 105 -66 -1 -106 -24 -238 -142 -151 -133 -219
-173 -298 -173 -141 0 -245 143 -187 256 24 47 73 84 162 120 121 50 138 52
430 51 l275 0 35 -42z m-1416 -57 c-7 -25 -25 -51 -30 -45 -2 2 1 18 7 35 12
36 34 45 23 10z m-113 -151 c-38 -39 -41 -21 -4 24 17 19 29 27 31 19 3 -7
-10 -26 -27 -43z m3802 26 c41 -44 59 -99 60 -183 2 -143 -81 -232 -173 -185
-100 51 -110 299 -15 373 40 32 94 29 128 -5z m-683 -79 c0 -9 -24 -139 -54
-288 -30 -149 -64 -323 -75 -386 -25 -131 -84 -318 -131 -410 -56 -111 -136
-180 -208 -180 -36 0 -101 43 -140 92 -54 69 -100 218 -147 478 -14 80 -44
219 -65 310 -46 197 -74 339 -69 344 2 3 20 1 39 -3 l35 -7 32 -189 c17 -105
46 -284 63 -400 52 -350 80 -444 157 -535 80 -93 169 -66 248 75 35 62 60 142
95 305 33 151 116 596 131 697 12 85 15 93 38 102 39 14 51 13 51 -5z m-3195
-24 c-8 -13 -114 -94 -142 -109 -37 -19 -26 5 12 29 20 12 43 29 52 38 34 35
93 67 78 42z"/>
<path d="M2582 9623 c-70 -34 -102 -141 -64 -212 68 -126 277 -70 274 74 -1
112 -113 186 -210 138z"/>
<path d="M5257 9452 c-10 -10 -17 -26 -17 -35 0 -19 27 -47 46 -47 16 0 54 35
54 50 0 15 -38 50 -53 50 -8 0 -21 -8 -30 -18z"/>
<path d="M1502 7447 c-71 -40 -76 -146 -10 -202 28 -23 39 -27 80 -23 113 11
156 134 72 207 -27 24 -44 31 -77 31 -23 -1 -52 -6 -65 -13z"/>
<path d="M8165 7356 c-21 -31 -13 -71 16 -87 29 -15 63 -4 79 27 33 61 -57
118 -95 60z"/>
<path d="M2704 4021 c-23 -11 -63 -45 -95 -82 -120 -140 -180 -192 -284 -244
-178 -89 -265 -202 -265 -343 0 -99 57 -187 153 -239 22 -12 55 -18 107 -18
87 0 133 20 191 82 51 53 72 99 107 235 44 168 64 202 201 348 34 36 65 79 70
97 32 113 -80 212 -185 164z m-344 -541 c0 -6 -10 -14 -22 -19 -31 -12 -74
-59 -88 -95 -8 -23 -7 -34 5 -52 13 -21 13 -24 1 -24 -19 0 -46 38 -46 65 0
40 52 105 100 127 23 10 50 9 50 -2z"/>
<path d="M3244 4000 c-54 -21 -72 -105 -33 -154 17 -22 28 -26 69 -26 62 0 90
30 90 97 0 74 -57 111 -126 83z"/>
<path d="M6955 3805 c-45 -44 -24 -116 36 -130 40 -10 83 31 83 80 0 69 -71
99 -119 50z"/>
<path d="M6180 3755 c-18 -22 0 -38 45 -42 37 -3 42 5 25 38 -13 23 -53 25
-70 4z"/>
<path d="M5971 3686 c-15 -17 -4 -46 18 -46 27 0 41 15 34 38 -6 25 -35 29
-52 8z"/>
<path d="M3975 3600 c3 -5 8 -10 11 -10 2 0 4 5 4 10 0 6 -5 10 -11 10 -5 0
-7 -4 -4 -10z"/>
<path d="M3918 3493 c7 -3 16 -2 19 1 4 3 -2 6 -13 5 -11 0 -14 -3 -6 -6z"/>
<path d="M5456 3394 c-19 -18 -21 -70 -3 -81 26 -16 77 -12 87 7 32 60 -37
121 -84 74z"/>
</g>
</svg>
